<?xml version="1.0" encoding="UTF-8"?>
<svg width="311px" height="103px" viewBox="0 0 311 103" version="1.1" xmlns="http://www.w3.org/2000/svg" xmlns:xlink="http://www.w3.org/1999/xlink">
    <!-- Generator: Sketch 52.6 (67491) - http://www.bohemiancoding.com/sketch -->
    <title>black@3x</title>
    <desc>Created with Sketch.</desc>
    <g id="black" stroke="none" stroke-width="1" fill="none" fill-rule="evenodd">
        <circle id="Oval" fill="#B76FFF" fill-rule="nonzero" cx="11" cy="51" r="8"></circle>
        <circle id="Oval" fill="#B76FFF" fill-rule="nonzero" cx="87" cy="51" r="8"></circle>
        <path d="M10,49.995516 L48.1664528,28.3734975 C48.7664144,28.0336078 49.4991487,28.0267493 50.1053675,28.3553488 L68.6249326,38.393836 C69.2203403,38.7165754 69.938629,38.7160687 70.5335808,38.3924896 L86.8288922,29.5298857 C87.7992327,29.0021423 88.1580285,27.7877053 87.6302851,26.8173648 C87.4546308,26.4943963 87.1933527,26.2260938 86.8751568,26.041935 L50.9816681,5.26824955 C50.3619372,4.90957464 49.5977419,4.90957464 48.978011,5.26824955 L11.5037787,26.9568049 C11.025778,27.2334522 10.8625488,27.8452153 11.1391961,28.3232161 C11.2275845,28.4759366 11.3548094,28.6025501 11.507954,28.6902018 L86.9821168,71.8875243 C87.9407727,72.436207 88.2731216,73.6581463 87.7244389,74.6168022 C87.5528744,74.916559 87.306607,75.1667778 87.0096189,75.3430917 L51.0008196,96.7205545 C50.371444,97.094198 49.5882352,97.094198 48.9588596,96.7205545 L12.8236017,75.2680166 C11.8738004,74.7041449 11.5609426,73.4770705 12.1248143,72.5272692 C12.2878116,72.252712 12.5141756,72.0211705 12.7849771,71.8520069 L28.0849889,62.2944325 C28.7209889,61.8971375 29.5257958,61.8890031 30.1696963,62.2733618 L48.1144823,72.9850084 C48.7413026,73.3591716 49.5221903,73.3620962 50.1517957,72.9926388 L87.6173412,51.0075576" id="Path-2" stroke="#B76FFF" stroke-width="8" fill-rule="nonzero"></path>
        <path d="M126.920188,65.1028446 C130.175274,65.1028446 133.179969,62.7374179 133.179969,58.0568928 C133.179969,53.3763676 130.175274,51.0109409 126.920188,51.0109409 C123.665102,51.0109409 120.660407,53.3763676 120.660407,58.0568928 C120.660407,62.6870897 123.665102,65.1028446 126.920188,65.1028446 Z M126.920188,44.9212254 C134.28169,44.9212254 139.840376,50.4070022 139.840376,58.0568928 C139.840376,65.6564551 134.28169,71.1925602 126.920188,71.1925602 C119.558685,71.1925602 114,65.6564551 114,58.0568928 C114,50.4070022 119.558685,44.9212254 126.920188,44.9212254 Z M151.258216,56.1947484 L151.258216,70.4376368 L144.597809,70.4376368 L144.597809,45.6761488 L151.057903,45.6761488 L151.057903,48.7461707 C152.56025,46.1794311 155.514867,45.0218818 158.169014,45.0218818 C164.27856,45.0218818 167.082942,49.4004376 167.082942,54.8358862 L167.082942,70.4376368 L160.422535,70.4376368 L160.422535,55.9934354 C160.422535,53.2253829 159.070423,51.0612691 155.865415,51.0612691 C152.960876,51.0612691 151.258216,53.3260394 151.258216,56.1947484 Z M178.200313,55.238512 L189.217527,55.238512 C189.117371,52.7724289 187.514867,50.356674 183.70892,50.356674 C180.253521,50.356674 178.350548,52.9737418 178.200313,55.238512 Z M189.868545,61.6805252 L195.42723,63.3413567 C194.175274,67.619256 190.269171,71.1925602 184.209703,71.1925602 C177.449139,71.1925602 171.489828,66.3107221 171.489828,57.9562363 C171.489828,50.0547046 177.298905,44.9212254 183.608764,44.9212254 C191.220657,44.9212254 195.777778,49.8030635 195.777778,57.7549234 C195.777778,58.7111597 195.677621,59.7177243 195.677621,59.8183807 L178.050078,59.8183807 C178.200313,63.0897155 180.954617,65.4551422 184.259781,65.4551422 C187.364632,65.4551422 189.067293,63.8949672 189.868545,61.6805252 Z M198.431925,63.5426696 L204.140845,62.2844639 C204.29108,64.2472648 205.743349,66.059081 208.647887,66.059081 C210.85133,66.059081 211.902973,64.9015317 211.902973,63.5929978 C211.902973,62.4857768 211.1518,61.5798687 209.248826,61.1772429 L205.99374,60.4223195 C201.236307,59.3654267 199.082942,56.4967177 199.082942,53.02407 C199.082942,48.595186 202.989045,44.9212254 208.29734,44.9212254 C215.308294,44.9212254 217.661972,49.4004376 217.962441,52.0678337 L212.403756,53.3260394 C212.203443,51.8665208 211.1518,50.0043764 208.347418,50.0043764 C206.594679,50.0043764 205.192488,51.0612691 205.192488,52.4704595 C205.192488,53.678337 206.093897,54.4332604 207.446009,54.6849015 L210.951487,55.4398249 C215.809077,56.4463895 218.262911,59.4157549 218.262911,63.0393873 C218.262911,67.0656455 215.158059,71.1925602 208.697966,71.1925602 C201.286385,71.1925602 198.732394,66.3610503 198.431925,63.5426696 Z M229.780908,55.892779 L229.780908,70.4376368 L223.120501,70.4376368 L223.120501,34 L229.780908,34 L229.780908,47.7396061 C231.383412,45.8271335 234.087637,45.0218818 236.441315,45.0218818 C242.701095,45.0218818 245.605634,49.4004376 245.605634,54.8358862 L245.605634,70.4376368 L238.945227,70.4376368 L238.945227,55.9934354 C238.945227,53.2253829 237.593114,51.0612691 234.388106,51.0612691 C231.583725,51.0612691 229.931142,53.1750547 229.780908,55.892779 Z M262.932707,65.1028446 C266.187793,65.1028446 269.192488,62.7374179 269.192488,58.0568928 C269.192488,53.3763676 266.187793,51.0109409 262.932707,51.0109409 C259.677621,51.0109409 256.672926,53.3763676 256.672926,58.0568928 C256.672926,62.6870897 259.677621,65.1028446 262.932707,65.1028446 Z M262.932707,44.9212254 C270.29421,44.9212254 275.852895,50.4070022 275.852895,58.0568928 C275.852895,65.6564551 270.29421,71.1925602 262.932707,71.1925602 C255.571205,71.1925602 250.01252,65.6564551 250.01252,58.0568928 C250.01252,50.4070022 255.571205,44.9212254 262.932707,44.9212254 Z M287.270736,80 L280.610329,80 L280.610329,45.6761488 L287.070423,45.6761488 L287.070423,48.6958425 C288.172144,46.7833698 290.926448,45.1225383 294.632238,45.1225383 C301.843505,45.1225383 306,50.6586433 306,58.0065646 C306,65.5054705 301.342723,71.0415755 294.381847,71.0415755 C290.976526,71.0415755 288.472613,69.6827133 287.270736,68.0218818 L287.270736,80 Z M299.43975,58.0568928 C299.43975,53.678337 296.735524,51.1115974 293.330203,51.1115974 C289.924883,51.1115974 287.170579,53.678337 287.170579,58.0568928 C287.170579,62.4354486 289.924883,65.0525164 293.330203,65.0525164 C296.735524,65.0525164 299.43975,62.4857768 299.43975,58.0568928 Z" id="oneshop" fill="#FFFFFF"></path>
    </g>
</svg>